<?xml version="1.0" standalone="no"?>
<!DOCTYPE svg PUBLIC "-//W3C//DTD SVG 20010904//EN"
 "http://www.w3.org/TR/2001/REC-SVG-20010904/DTD/svg10.dtd">
<svg version="1.0" xmlns="http://www.w3.org/2000/svg"
 width="700.000000pt" height="700.000000pt" viewBox="0 0 700.000000 700.000000"
 preserveAspectRatio="xMidYMid meet">
<metadata>
Created by potrace 1.14, written by Peter Selinger 2001-2017
</metadata>
<g transform="translate(0.000000,700.000000) scale(0.100000,-0.100000)"
fill="#000000" stroke="none">
<path d="M3298 6705 c-2 -2 -37 -6 -80 -9 -42 -4 -91 -9 -110 -11 -18 -3 -53
-8 -78 -11 -25 -3 -76 -12 -115 -19 -38 -8 -81 -16 -95 -19 -205 -36 -553
-162 -800 -289 -110 -57 -352 -205 -388 -237 -9 -9 -33 -26 -52 -40 -157 -108
-390 -330 -557 -530 -327 -392 -586 -939 -672 -1425 -6 -33 -13 -71 -16 -85
-3 -14 -7 -46 -10 -71 -3 -25 -7 -54 -9 -65 -19 -99 -27 -502 -14 -665 34
-397 144 -790 319 -1144 33 -66 64 -127 69 -135 203 -347 368 -557 627 -800
210 -198 466 -377 728 -508 217 -110 336 -156 605 -237 67 -20 268 -63 325
-70 28 -3 61 -8 75 -11 14 -2 35 -6 48 -9 133 -25 646 -26 778 -1 10 2 46 7
79 10 33 4 105 16 160 27 760 151 1423 556 1906 1164 157 198 328 483 422 705
8 19 26 62 40 95 78 186 156 482 192 730 4 22 8 51 10 64 27 161 26 558 -1
791 -82 702 -429 1397 -950 1902 -508 492 -1165 805 -1854 883 -19 3 -55 7
-80 10 -48 7 -496 15 -502 10z m-90 -596 l-3 -294 -70 -11 c-405 -65 -786
-236 -1111 -498 -93 -75 -261 -243 -332 -333 l-49 -61 -244 140 c-134 77 -248
143 -252 148 -31 29 332 424 543 591 401 319 891 535 1370 606 19 2 58 8 85
12 28 4 53 4 58 1 4 -3 6 -139 5 -301z m669 297 c44 -5 142 -23 281 -52 13 -3
47 -11 75 -19 500 -135 926 -378 1287 -732 176 -173 352 -385 333 -403 -4 -5
-118 -72 -252 -149 l-244 -140 -62 77 c-221 273 -543 514 -880 656 -138 59
-152 63 -283 101 -111 31 -175 45 -297 64 l-40 6 -3 290 c-1 159 0 295 2 302
3 7 11 11 18 8 7 -2 37 -6 65 -9z m58 -2173 c237 -394 430 -724 430 -733 0 -9
-187 -327 -415 -707 -228 -381 -421 -703 -428 -717 -7 -14 -16 -26 -20 -26 -7
0 -865 1424 -870 1445 -2 6 23 55 55 109 170 284 771 1286 788 1313 11 18 22
32 25 33 3 0 199 -323 435 -717z m-2903 354 c90 -52 181 -105 203 -117 96 -53
107 -62 101 -84 -3 -11 -23 -74 -45 -138 -22 -64 -42 -127 -45 -140 -2 -13
-11 -50 -19 -83 -16 -62 -21 -87 -36 -195 -23 -161 -30 -381 -17 -515 3 -27 8
-75 11 -105 3 -30 7 -66 10 -80 13 -60 16 -77 21 -110 13 -84 83 -311 116
-380 13 -27 14 -38 5 -47 -10 -10 -111 -69 -367 -215 -19 -11 -54 -32 -78 -45
-24 -15 -47 -22 -51 -17 -23 25 -121 296 -165 454 -17 63 -62 293 -71 360 -28
231 -26 562 5 765 31 198 32 205 77 365 35 128 45 158 87 270 49 130 65 162
81 156 8 -3 88 -48 177 -99z m5160 27 c37 -88 93 -246 109 -304 7 -25 14 -49
15 -55 29 -106 54 -230 79 -395 26 -176 25 -544 -1 -730 -5 -34 -28 -165 -39
-225 -30 -160 -159 -548 -196 -589 -4 -5 -27 2 -51 17 -24 13 -59 34 -78 44
-19 11 -60 35 -90 53 -30 18 -68 40 -85 49 -113 62 -195 114 -195 123 0 6 16
54 35 107 37 105 79 255 95 341 6 30 12 64 14 75 2 11 7 47 10 80 4 33 9 74
11 90 6 41 7 375 2 400 -3 11 -8 51 -12 89 -4 38 -9 81 -12 95 -30 171 -66
302 -126 462 l-25 66 42 21 c22 12 48 26 56 32 56 38 397 229 404 227 6 -2 23
-35 38 -73z m-4453 -2642 c254 -293 581 -520 946 -657 93 -35 177 -62 214 -70
9 -2 48 -11 86 -20 39 -9 104 -22 145 -28 l75 -12 0 -300 c0 -194 -4 -300 -10
-299 -5 1 -35 4 -65 8 -30 3 -64 7 -75 10 -11 2 -40 7 -65 11 -25 4 -81 16
-125 27 -44 10 -91 21 -105 24 -60 12 -285 91 -390 136 -174 75 -397 197 -520
286 -81 59 -146 108 -156 117 -6 6 -39 33 -72 60 -167 135 -501 511 -476 535
8 7 159 95 369 215 22 13 60 34 84 48 l44 25 21 -26 c11 -15 45 -55 75 -90z
m3790 18 c85 -50 156 -90 157 -90 10 0 174 -102 174 -108 0 -29 -292 -353
-427 -474 -99 -89 -338 -264 -428 -314 -11 -6 -38 -21 -60 -34 -192 -111 -500
-237 -695 -285 -196 -48 -435 -90 -452 -79 -4 3 -8 133 -8 289 0 318 -8 287
80 300 210 31 472 118 685 226 288 146 559 364 759 612 21 26 43 47 50 47 6 0
80 -41 165 -90z"/>
</g>
</svg>
